# xmcd
#
# Track frame offsets:
# 150
# 15331
# 31133
# 57581
# 79887
# 97016
# 109888
# 127708
# 151958
# 167133
# 188290
# 207444
# 225385
# 242069
#
# Disc length: 3327 seconds
#
#
# Revision: 0
# Processed by: cddbd v1.5.2PL0 Copyright (c) Steve Scherf et al.
# Submitted via: FreeRIP 2.95 
#
DISCID=a50cfd0e
DTITLE=Zeb and Joy Son - Out Of The Dust
DYEAR=1900
DGENRE=Country
TTITLE0=Beautiful Day
TTITLE1=Do I Wanna
TTITLE2=Hand In Hand
TTITLE3=Ashes
TTITLE4=Never Be The Same
TTITLE5=Somebody Led Me
TTITLE6=You Are
TTITLE7=To Have A Friend
TTITLE8=Baruch
TTITLE9=Home Right Now
TTITLE10=The Same Hand
TTITLE11=The Snake
TTITLE12=The King Of Who I Am
TTITLE13=I Surrender All
EXTD=
EXTT0=
EXTT1=
EXTT2=
EXTT3=
EXTT4=
EXTT5=
EXTT6=
EXTT7=
EXTT8=
EXTT9=
EXTT10=
EXTT11=
EXTT12=
EXTT13=
PLAYORDER=
